<svg width="110" height="59" viewBox="0 0 110 59" fill="none" xmlns="http://www.w3.org/2000/svg">
<path fill-rule="evenodd" clip-rule="evenodd" d="M109.878 36.8613V33.3018C109.878 31.7588 109.692 30.4111 109.321 29.2588C108.96 28.0967 108.438 27.1299 107.754 26.3584C107.07 25.5771 106.26 24.9912 105.322 24.6006C104.385 24.2002 103.345 24 102.202 24C101.06 24 100.02 24.2002 99.082 24.6006C98.1445 24.9912 97.334 25.5771 96.6504 26.3584C95.9668 27.1299 95.4443 28.0967 95.083 29.2588C94.7217 30.4111 94.541 31.7588 94.541 33.3018V36.8613C94.541 38.3652 94.7266 39.6836 95.0977 40.8164C95.4688 41.9395 95.9912 42.8818 96.665 43.6436C97.3486 44.3955 98.1592 44.9619 99.0967 45.3428C100.044 45.7236 101.089 45.9141 102.231 45.9141C103.374 45.9141 104.414 45.7236 105.352 45.3428C106.299 44.9619 107.104 44.3955 107.769 43.6436C108.442 42.8818 108.96 41.9395 109.321 40.8164C109.692 39.6836 109.878 38.3652 109.878 36.8613ZM105.615 33.2725V36.8613C105.615 37.8379 105.542 38.6729 105.396 39.3662C105.249 40.0596 105.034 40.626 104.751 41.0654C104.468 41.5049 104.111 41.832 103.682 42.0469C103.262 42.252 102.778 42.3545 102.231 42.3545C101.675 42.3545 101.182 42.252 100.752 42.0469C100.332 41.832 99.9756 41.5049 99.6826 41.0654C99.3896 40.626 99.1699 40.0596 99.0234 39.3662C98.877 38.6729 98.8037 37.8379 98.8037 36.8613V33.2725C98.8037 32.2568 98.8721 31.3926 99.0088 30.6797C99.1553 29.957 99.3701 29.3662 99.6533 28.9072C99.9463 28.4482 100.303 28.1113 100.723 27.8965C101.152 27.6816 101.646 27.5742 102.202 27.5742C102.759 27.5742 103.247 27.6816 103.667 27.8965C104.087 28.1113 104.443 28.4482 104.736 28.9072C105.029 29.3662 105.249 29.957 105.396 30.6797C105.542 31.3926 105.615 32.2568 105.615 33.2725ZM91.4355 45.6211V24.293H87.3633V37.7842L80.6104 24.293H76.5234V45.6211H80.5957V32.2764L87.29 45.6211H91.4355ZM67.7637 24.293H66.6943H64.8926H63.8672L57.2021 45.6211H61.7285L62.8786 41.2266H68.7742L69.9316 45.6211H74.4873L67.7637 24.293ZM65.817 29.9986L63.8102 37.667H67.8367L65.817 29.9986ZM40.8545 24.293H39.1553H37.0898H35.5664V45.6211H39.7119V38.3555L39.4634 32.0764L43.5938 45.6211H46.8018L50.9763 30.9395L50.6982 38.3555V45.6211H54.8291V24.293H52.8662H51.2256H49.541L45.2051 38.8828L40.8545 24.293ZM28.0078 24.293H32.2852V38.9414C32.2852 40.582 31.9824 41.9199 31.377 42.9551C30.7812 43.9805 29.9561 44.7324 28.9014 45.2109C27.8467 45.6797 26.6406 45.9141 25.2832 45.9141C23.916 45.9141 22.7002 45.6797 21.6357 45.2109C20.5713 44.7324 19.7412 43.9805 19.1455 42.9551C18.5596 41.9199 18.2666 40.582 18.2666 38.9414V24.293H22.5439V38.9414C22.5439 39.8691 22.6465 40.582 22.8516 41.0801C23.0664 41.5781 23.374 41.9199 23.7744 42.1055C24.1846 42.2812 24.6875 42.3691 25.2832 42.3691C25.8887 42.3691 26.3867 42.2812 26.7773 42.1055C27.1777 41.9199 27.4805 41.5781 27.6855 41.0801C27.9004 40.582 28.0078 39.8691 28.0078 38.9414V24.293ZM10.6787 32.9355V24.293H14.9268V45.6211H10.6787V36.4805H4.29199V45.6211H0V24.293H4.29199V32.9355H10.6787Z" fill="#252525"/>
<path fill-rule="evenodd" clip-rule="evenodd" d="M65.9033 12.8613V9.30176C65.9033 7.75879 65.7178 6.41113 65.3467 5.25879C64.9854 4.09668 64.4629 3.12988 63.7793 2.3584C63.0957 1.57715 62.2852 0.991211 61.3477 0.600586C60.4102 0.200195 59.3701 0 58.2275 0C57.085 0 56.0449 0.200195 55.1074 0.600586C54.1699 0.991211 53.3594 1.57715 52.6758 2.3584C51.9922 3.12988 51.4697 4.09668 51.1084 5.25879C50.7471 6.41113 50.5664 7.75879 50.5664 9.30176V12.8613C50.5664 14.3652 50.752 15.6836 51.123 16.8164C51.4941 17.9395 52.0166 18.8818 52.6904 19.6436C53.374 20.3955 54.1846 20.9619 55.1221 21.3428C56.0693 21.7236 57.1143 21.9141 58.2568 21.9141C59.3994 21.9141 60.4395 21.7236 61.377 21.3428C62.3242 20.9619 63.1299 20.3955 63.7939 19.6436C64.4678 18.8818 64.9854 17.9395 65.3467 16.8164C65.7178 15.6836 65.9033 14.3652 65.9033 12.8613ZM61.6406 9.27246V12.8613C61.6406 13.8379 61.5674 14.6729 61.4209 15.3662C61.2744 16.0596 61.0596 16.626 60.7764 17.0654C60.4932 17.5049 60.1367 17.832 59.707 18.0469C59.2871 18.252 58.8037 18.3545 58.2568 18.3545C57.7002 18.3545 57.207 18.252 56.7773 18.0469C56.3574 17.832 56.001 17.5049 55.708 17.0654C55.415 16.626 55.1953 16.0596 55.0488 15.3662C54.9023 14.6729 54.8291 13.8379 54.8291 12.8613V9.27246C54.8291 8.25684 54.8975 7.39258 55.0342 6.67969C55.1807 5.95703 55.3955 5.36621 55.6787 4.90723C55.9717 4.44824 56.3281 4.11133 56.748 3.89648C57.1777 3.68164 57.6709 3.57422 58.2275 3.57422C58.7842 3.57422 59.2725 3.68164 59.6924 3.89648C60.1123 4.11133 60.4688 4.44824 60.7617 4.90723C61.0547 5.36621 61.2744 5.95703 61.4209 6.67969C61.5674 7.39258 61.6406 8.25684 61.6406 9.27246ZM49.3359 21.6211V18.0762H41.792V0.292969H37.5V21.6211H40.4736H41.792H49.3359ZM34.9951 18.0762V21.6211H27.0557H25.7227H22.7637V0.292969H25.7227H27.0557H34.9658V3.85254H27.0557V8.93555H33.75V12.3779H27.0557V18.0762H34.9951ZM5.28809 0.292969H3.58887H1.52344H0V21.6211H4.14551V14.3555L3.89696 8.07642L8.02734 21.6211H11.2354L15.4099 6.93946L15.1318 14.3555V21.6211H19.2627V0.292969H17.2998H15.6592H13.9746L9.63867 14.8828L5.28809 0.292969Z" fill="#252525"/>
<path fill-rule="evenodd" clip-rule="evenodd" d="M18.3047 55.7266H16.5996C16.5879 56.1367 16.5391 56.4531 16.4531 56.6758C16.3672 56.8984 16.2344 57.0527 16.0547 57.1387C15.8789 57.2246 15.6465 57.2676 15.3574 57.2676C15.1074 57.2676 14.9004 57.2266 14.7363 57.1445C14.5762 57.0625 14.4492 56.9316 14.3555 56.752C14.2617 56.5723 14.1934 56.3418 14.1504 56.0605C14.1074 55.7754 14.0859 55.4316 14.0859 55.0293V53.5703C14.0859 53.1602 14.1094 52.8125 14.1562 52.5273C14.207 52.2422 14.2852 52.0117 14.3906 51.8359C14.4961 51.6602 14.6309 51.5332 14.7949 51.4551C14.959 51.373 15.1543 51.332 15.3809 51.332C15.6855 51.332 15.9238 51.3809 16.0957 51.4785C16.2676 51.5723 16.3926 51.7363 16.4707 51.9707C16.5527 52.2012 16.5996 52.5195 16.6113 52.9258H18.3223C18.2754 52.2812 18.1367 51.7363 17.9062 51.291C17.6797 50.8418 17.3574 50.5 16.9395 50.2656C16.5215 50.0312 16.002 49.9141 15.3809 49.9141C14.916 49.9141 14.498 49.9941 14.127 50.1543C13.7598 50.3105 13.4453 50.5449 13.1836 50.8574C12.9258 51.166 12.7266 51.5488 12.5859 52.0059C12.4492 52.4629 12.3809 52.9883 12.3809 53.582V55.0293C12.3809 55.623 12.4453 56.1484 12.5742 56.6055C12.707 57.0586 12.9023 57.4395 13.1602 57.748C13.418 58.0566 13.7305 58.291 14.0977 58.4512C14.4648 58.6074 14.8848 58.6855 15.3574 58.6855C15.9668 58.6855 16.4863 58.5723 16.916 58.3457C17.3496 58.1191 17.6836 57.7871 17.918 57.3496C18.1523 56.9082 18.2812 56.3672 18.3047 55.7266ZM25.3711 53.6406V55.0645C25.3711 55.666 25.2969 56.1934 25.1484 56.6465C25.0039 57.0957 24.7969 57.4727 24.5273 57.7773C24.2617 58.0781 23.9395 58.3047 23.5605 58.457C23.1855 58.6094 22.7695 58.6855 22.3125 58.6855C21.8555 58.6855 21.4375 58.6094 21.0586 58.457C20.6836 58.3047 20.3594 58.0781 20.0859 57.7773C19.8164 57.4727 19.6074 57.0957 19.459 56.6465C19.3105 56.1934 19.2363 55.666 19.2363 55.0645V53.6406C19.2363 53.0234 19.3086 52.4844 19.4531 52.0234C19.5977 51.5586 19.8066 51.1719 20.0801 50.8633C20.3535 50.5508 20.6777 50.3164 21.0527 50.1602C21.4277 50 21.8438 49.9199 22.3008 49.9199C22.7578 49.9199 23.1738 50 23.5488 50.1602C23.9238 50.3164 24.248 50.5508 24.5215 50.8633C24.7949 51.1719 25.0039 51.5586 25.1484 52.0234C25.2969 52.4844 25.3711 53.0234 25.3711 53.6406ZM23.666 55.0645V53.6289C23.666 53.2227 23.6367 52.877 23.5781 52.5918C23.5195 52.3027 23.4316 52.0664 23.3145 51.8828C23.1973 51.6992 23.0547 51.5645 22.8867 51.4785C22.7188 51.3926 22.5234 51.3496 22.3008 51.3496C22.0781 51.3496 21.8809 51.3926 21.709 51.4785C21.541 51.5645 21.3984 51.6992 21.2812 51.8828C21.168 52.0664 21.082 52.3027 21.0234 52.5918C20.9688 52.877 20.9414 53.2227 20.9414 53.6289V55.0645C20.9414 55.4551 20.9707 55.7891 21.0293 56.0664C21.0879 56.3438 21.1758 56.5703 21.293 56.7461C21.4102 56.9219 21.5527 57.0527 21.7207 57.1387C21.8926 57.2207 22.0898 57.2617 22.3125 57.2617C22.5312 57.2617 22.7246 57.2207 22.8926 57.1387C23.0645 57.0527 23.207 56.9219 23.3203 56.7461C23.4336 56.5703 23.5195 56.3438 23.5781 56.0664C23.6367 55.7891 23.666 55.4551 23.666 55.0645ZM43.6582 56.3242C43.6582 56.1719 43.6445 56.0332 43.6172 55.9082C43.5898 55.7832 43.5312 55.668 43.4414 55.5625C43.3555 55.457 43.2285 55.3516 43.0605 55.2461C42.8965 55.1406 42.6816 55.0312 42.416 54.918C42.0996 54.7852 41.793 54.6445 41.4961 54.4961C41.1992 54.3438 40.9316 54.168 40.6934 53.9688C40.4551 53.7695 40.2656 53.5352 40.125 53.2656C39.9883 52.9922 39.9199 52.6719 39.9199 52.3047C39.9199 51.9453 39.9844 51.6191 40.1133 51.3262C40.2461 51.0332 40.4336 50.7832 40.6758 50.5762C40.918 50.3652 41.2012 50.2031 41.5254 50.0898C41.8535 49.9766 42.2188 49.9199 42.6211 49.9199C43.168 49.9199 43.6406 50.0332 44.0391 50.2598C44.4414 50.4863 44.752 50.7969 44.9707 51.1914C45.1934 51.5859 45.3047 52.0391 45.3047 52.5508H43.5938C43.5938 52.3086 43.5586 52.0957 43.4883 51.9121C43.4219 51.7246 43.3145 51.5781 43.166 51.4727C43.0176 51.3672 42.8262 51.3145 42.5918 51.3145C42.373 51.3145 42.1914 51.3594 42.0469 51.4492C41.9062 51.5352 41.8008 51.6543 41.7305 51.8066C41.6641 51.9551 41.6309 52.123 41.6309 52.3105C41.6309 52.4512 41.6641 52.5781 41.7305 52.6914C41.8008 52.8008 41.8965 52.9004 42.0176 52.9902C42.1387 53.0762 42.2812 53.1602 42.4453 53.2422C42.6133 53.3242 42.7969 53.4043 42.9961 53.4824C43.3828 53.6348 43.7246 53.8027 44.0215 53.9863C44.3184 54.166 44.5664 54.3691 44.7656 54.5957C44.9648 54.8184 45.1152 55.0703 45.2168 55.3516C45.3184 55.6328 45.3691 55.9531 45.3691 56.3125C45.3691 56.668 45.3066 56.9922 45.1816 57.2852C45.0605 57.5742 44.8828 57.8242 44.6484 58.0352C44.4141 58.2422 44.1309 58.4023 43.7988 58.5156C43.4707 58.6289 43.1035 58.6855 42.6973 58.6855C42.3027 58.6855 41.9297 58.6309 41.5781 58.5215C41.2266 58.4082 40.916 58.2383 40.6465 58.0117C40.3809 57.7812 40.1719 57.4902 40.0195 57.1387C39.8672 56.7832 39.791 56.3633 39.791 55.8789H41.5078C41.5078 56.1367 41.5332 56.3574 41.584 56.541C41.6348 56.7207 41.7129 56.8652 41.8184 56.9746C41.9238 57.0801 42.0527 57.1602 42.2051 57.2148C42.3613 57.2656 42.5391 57.291 42.7383 57.291C42.9648 57.291 43.1445 57.248 43.2773 57.1621C43.4141 57.0762 43.5117 56.9609 43.5703 56.8164C43.6289 56.6719 43.6582 56.5078 43.6582 56.3242ZM35.4902 58.5684H34.9805H33.9844H33.2637V50.0371H33.9551H34.9805H35.5137C36.0059 50.0371 36.4531 50.1172 36.8555 50.2773C37.2578 50.4375 37.6035 50.6719 37.8926 50.9805C38.1816 51.2852 38.4043 51.6621 38.5605 52.1113C38.7168 52.5605 38.7949 53.0723 38.7949 53.6465V54.9648C38.7949 55.543 38.7168 56.0547 38.5605 56.5C38.4043 56.9453 38.1816 57.3223 37.8926 57.6309C37.6074 57.9355 37.2617 58.168 36.8555 58.3281C36.4492 58.4883 35.9941 58.5684 35.4902 58.5684ZM35.4902 57.1504H34.9805V51.4609H35.5137C35.8145 51.4609 36.0664 51.502 36.2695 51.584C36.4727 51.666 36.6348 51.793 36.7559 51.9648C36.877 52.1328 36.9629 52.3555 37.0137 52.6328C37.0645 52.9062 37.0898 53.2402 37.0898 53.6348V54.9648C37.0898 55.4844 37.041 55.9043 36.9434 56.2246C36.8496 56.5449 36.6875 56.7793 36.457 56.9277C36.2266 57.0762 35.9043 57.1504 35.4902 57.1504ZM29.3613 50.0371H26.625V58.5684H28.3418V55.4395H29.2108L30.498 58.5684H32.332V58.4863L30.8289 54.9845C31.0216 54.8798 31.1946 54.756 31.3477 54.6133C31.5781 54.3945 31.7559 54.123 31.8809 53.7988C32.0059 53.4707 32.0684 53.0762 32.0684 52.6152C32.0684 52.0527 31.9609 51.5801 31.7461 51.1973C31.5312 50.8145 31.2227 50.5254 30.8203 50.3301C30.418 50.1348 29.9316 50.0371 29.3613 50.0371ZM28.3418 54.0156H29.3145C29.5488 54.0156 29.7422 53.9648 29.8945 53.8633C30.0508 53.7578 30.166 53.6113 30.2402 53.4238C30.3184 53.2324 30.3574 53.0098 30.3574 52.7559C30.3574 52.4863 30.3223 52.2559 30.252 52.0645C30.1855 51.8691 30.0781 51.7207 29.9297 51.6191C29.7852 51.5137 29.5957 51.4609 29.3613 51.4609H28.3418V54.0156ZM11.5312 57.1504V58.5684H8.35547H7.82227H6.63867V50.0371H7.82227H8.35547H11.5195V51.4609H8.35547V53.4941H11.0332V54.8711H8.35547V57.1504H11.5312ZM2.73633 50.0371H0V58.5684H1.7168V55.4395H2.58581L3.87305 58.5684H5.70703V58.4863L4.20391 54.9845C4.39665 54.8798 4.56956 54.756 4.72266 54.6133C4.95312 54.3945 5.13086 54.123 5.25586 53.7988C5.38086 53.4707 5.44336 53.0762 5.44336 52.6152C5.44336 52.0527 5.33594 51.5801 5.12109 51.1973C4.90625 50.8145 4.59766 50.5254 4.19531 50.3301C3.79297 50.1348 3.30664 50.0371 2.73633 50.0371ZM2.68945 54.0156H1.7168V51.4609H2.73633C2.9707 51.4609 3.16016 51.5137 3.30469 51.6191C3.45312 51.7207 3.56055 51.8691 3.62695 52.0645C3.69727 52.2559 3.73242 52.4863 3.73242 52.7559C3.73242 53.0098 3.69336 53.2324 3.61523 53.4238C3.54102 53.6113 3.42578 53.7578 3.26953 53.8633C3.11719 53.9648 2.92383 54.0156 2.68945 54.0156Z" fill="#252525"/>
</svg>
